<svg width="551" height="558" viewBox="0 0 551 558" fill="none" xmlns="http://www.w3.org/2000/svg">
<path d="M246.185 0.781219C295.902 -2.6125 348.502 36.4683 392.414 72.6557C435.844 109.326 470.586 143.103 498.086 185.087C525.586 227.071 546.326 277.746 550.17 334.701C554.014 391.655 541.445 455.372 503.302 493.515C465.16 531.658 401.442 545.192 338.692 552.933C275.46 560.193 213.677 562.142 160.106 540.438C106.536 518.734 61.1785 472.41 32.7172 417.877C4.25608 362.378 -7.3089 298.668 7.18795 243.639C22.1676 188.127 63.6916 141.777 107.629 95.91C151.084 49.5601 196.952 3.69212 246.185 0.781219Z" fill="url(#paint0_linear_48_497)"/>
<defs>
<linearGradient id="paint0_linear_48_497" x1="76.9294" y1="128.083" x2="443.266" y2="537.728" gradientUnits="userSpaceOnUse">
<stop stop-color="#9898FF"/>
<stop offset="1" stop-color="#BBBBEA"/>
</linearGradient>
</defs>
</svg>
