<svg width="37" height="72" viewBox="0 0 37 72" fill="none" xmlns="http://www.w3.org/2000/svg">
<path d="M12.9994 54.0963L10.368 51.4649C9.81063 50.9077 8.90743 50.9077 8.34993 51.4649L5.5799 54.2349C5.02268 54.7922 5.02268 55.6956 5.5799 56.253C5.85859 56.5317 6.22373 56.6709 6.58887 56.6709C6.95401 56.6709 7.31915 56.5317 7.59783 56.253L9.35889 54.4919L10.9815 56.1146C11.539 56.6717 12.4422 56.6717 12.9995 56.1145C13.5565 55.5571 13.5565 54.6537 12.9994 54.0963Z" fill="white"/>
<path d="M31.0048 52.7116L28.3733 50.08C27.8159 49.5228 26.9127 49.5228 26.3552 50.08L23.5852 52.8501C23.028 53.4073 23.028 54.3108 23.5852 54.868C23.8639 55.1467 24.229 55.2859 24.5942 55.2859C24.9593 55.2859 25.3245 55.1465 25.6031 54.868L27.3642 53.1069L28.9869 54.7296C29.5443 55.2868 30.4475 55.2868 31.005 54.7296C31.5621 54.1723 31.562 53.2688 31.0048 52.7116Z" fill="white"/>
<path d="M21.7252 48.2792L19.0937 45.6477C18.5363 45.0905 17.6331 45.0905 17.0756 45.6477L14.3056 48.4179C13.7484 48.9751 13.7484 49.8786 14.3056 50.4358C14.5843 50.7145 14.9494 50.8537 15.3146 50.8537C15.6797 50.8537 16.0449 50.7143 16.3235 50.4358L18.0846 48.6747L19.7073 50.2974C20.2647 50.8547 21.1679 50.8547 21.7254 50.2974C22.2824 49.7399 22.2824 48.8365 21.7252 48.2792Z" fill="white"/>
<path d="M17.7085 62.1298L15.077 59.4981C14.8094 59.2307 14.4465 59.0803 14.0681 59.0803C13.6896 59.0803 13.3269 59.2307 13.0591 59.4981L10.2891 62.2683C9.73185 62.8255 9.73185 63.729 10.2891 64.2862C10.5678 64.5649 10.9329 64.7041 11.298 64.7041C11.6632 64.7041 12.0283 64.5648 12.307 64.2862L14.0681 62.5252L15.6906 64.1479C16.2478 64.7052 17.151 64.7052 17.7087 64.1479C18.2658 63.5905 18.2658 62.687 17.7085 62.1298Z" fill="white"/>
<path d="M29.4813 61.2988L26.8497 58.6671C26.2924 58.1099 25.3892 58.1099 24.8317 58.6671L22.0617 61.4373C21.5044 61.9945 21.5044 62.898 22.0617 63.4552C22.3403 63.7339 22.7055 63.8731 23.0706 63.8731C23.4358 63.8731 23.8009 63.7338 24.0796 63.4552L25.8406 61.6941L27.4633 63.3168C28.0207 63.8741 28.9239 63.8741 29.4814 63.3168C30.0383 62.7595 30.0383 61.856 29.4813 61.2988Z" fill="white"/>
<path d="M16.3236 40.9387L13.692 38.3071C13.1347 37.7499 12.2315 37.7499 11.674 38.3071L8.90394 41.0773C8.34672 41.6345 8.34672 42.538 8.90394 43.0952C9.18262 43.3738 9.54776 43.513 9.9129 43.513C10.2782 43.513 10.6432 43.3736 10.9219 43.0951L12.6829 41.334L14.3056 42.9567C14.863 43.514 15.7662 43.514 16.3237 42.9567C16.8808 42.3994 16.8808 41.4959 16.3236 40.9387Z" fill="white"/>
<path d="M26.8497 37.8916L24.2183 35.2603C23.6608 34.7029 22.7576 34.7029 22.2002 35.2601L19.4302 38.0302C18.873 38.5874 18.873 39.4908 19.4302 40.0482C19.7089 40.3269 20.074 40.4661 20.4391 40.4661C20.8043 40.4661 21.1694 40.3269 21.4481 40.0482L23.2092 38.2871L24.8317 39.9099C25.3891 40.4671 26.2923 40.4671 26.8498 39.9099C27.4069 39.3525 27.4069 38.449 26.8497 37.8916Z" fill="white"/>
<path d="M36.5822 10.6966C36.1456 10.2601 35.478 10.1538 34.9276 10.433C34.7793 10.5083 32.2519 11.7949 28.9294 13.7547C30.4816 10.5951 31.528 8.08142 31.5911 7.92921C31.8285 7.3566 31.6692 6.69641 31.1968 6.29517C30.7244 5.89394 30.047 5.84343 29.5205 6.17038C29.4039 6.24285 27.5048 7.42613 25.0638 9.20328C26.2963 5.35155 27.172 1.97883 27.2223 1.78409C27.3832 1.16167 27.108 0.508617 26.5502 0.188945C25.9926 -0.130727 25.2899 -0.0379734 24.8342 0.415723C24.6682 0.581085 21.2496 4.00151 18.5001 8.05022C15.7505 4.00151 12.3319 0.581085 12.1658 0.415723C11.7102 -0.0378335 11.0072 -0.130587 10.4498 0.188945C9.89203 0.508617 9.61685 1.16167 9.77774 1.78423C9.8281 1.97883 10.7037 5.35155 11.9364 9.20328C9.49542 7.42627 7.59627 6.24285 7.47974 6.17052C6.95301 5.84357 6.27575 5.89408 5.80345 6.29531C5.33101 6.69655 5.17166 7.35674 5.40907 7.92935C5.47217 8.08156 6.51862 10.5953 8.07082 13.7548C4.74818 11.7951 2.22074 10.5084 2.07259 10.4331C1.52194 10.1538 0.854478 10.2602 0.417989 10.6967C-0.0184998 11.1332 -0.124824 11.8008 0.154417 12.3513C0.400641 12.8366 5.88012 23.5772 11.6334 30.0241C5.32233 34.3025 0.591325 44.2402 0.591325 53.7204C0.591325 59.438 2.42262 64.1213 5.88683 67.2636C9.03571 70.1195 13.3971 71.629 18.5001 71.629C23.6031 71.629 27.9644 70.1194 31.1131 67.2636C34.5774 64.1213 36.4086 59.4381 36.4086 53.7204C36.4086 48.9704 35.1887 43.8657 32.9732 39.3465C30.9717 35.2631 28.3082 32.0107 25.3675 30.0228C31.1202 23.5758 36.5993 12.8364 36.8454 12.351C37.1249 11.8005 37.0186 11.1331 36.5822 10.6966ZM30.4109 40.6025C32.4384 44.7384 33.5549 49.3972 33.5549 53.7203C33.5549 63.1472 27.9269 68.7752 18.5 68.7752C9.07306 68.7752 3.44515 63.1473 3.44515 53.7204C3.44515 44.7026 8.29116 34.9364 14.3018 31.7402H22.6986C25.6353 33.3001 28.3737 36.4466 30.4109 40.6025ZM22.5347 28.8865H14.4652C10.9136 25.1697 7.26821 19.2586 4.99511 15.2724C6.7412 16.2674 8.85523 17.5252 10.9896 18.9223C11.5403 19.283 12.2667 19.2196 12.7471 18.7692C13.2274 18.3186 13.3369 17.5977 13.0121 17.0248C11.9265 15.1099 10.9221 13.1145 10.1047 11.4025C11.3 12.2679 12.6345 13.2822 13.9378 14.3712C14.4353 14.7868 15.1509 14.8148 15.6793 14.4393C16.2078 14.0637 16.4167 13.3789 16.1877 12.7721C15.496 10.941 14.8382 8.9432 14.2761 7.12478C15.3199 8.44754 16.3922 9.93692 17.2679 11.4358C17.5236 11.8738 17.9927 12.1431 18.5 12.1431C19.0072 12.1431 19.4763 11.8738 19.7321 11.4358C20.6064 9.93888 21.6789 8.44978 22.7234 7.12618C22.1616 8.94362 21.5038 10.9406 20.8121 12.772C20.5831 13.3786 20.7918 14.0634 21.3205 14.4392C21.849 14.815 22.5645 14.787 23.062 14.3711C24.3653 13.2821 25.7002 12.2674 26.8955 11.402C26.0784 13.1131 25.0742 15.1079 23.9877 17.0245C23.663 17.5974 23.7724 18.3183 24.2527 18.769C24.7329 19.2196 25.4592 19.283 26.0102 18.922C28.1427 17.5261 30.2576 16.268 32.0044 15.2727C29.7317 19.2589 26.0863 25.1697 22.5347 28.8865Z" fill="white"/>
<path d="M18.4006 21.0109L16.6003 19.6258C15.9757 19.1453 15.0797 19.2618 14.5994 19.8868C14.1188 20.5113 14.2357 21.4072 14.8602 21.8876L16.6606 23.2726C16.9198 23.4721 17.2259 23.5687 17.5296 23.5687C17.9574 23.5687 18.3806 23.377 18.6615 23.0117C19.142 22.3872 19.0251 21.4913 18.4006 21.0109Z" fill="white"/>
</svg>
