<svg width="48" height="50" viewBox="0 0 48 50" fill="none" xmlns="http://www.w3.org/2000/svg">
<g clip-path="url(#clip0_72_95)" filter="url(#filter0_d_72_95)">
<path d="M12 6C12.4899 6.00006 12.9627 6.17991 13.3287 6.50543C13.6948 6.83095 13.9287 7.2795 13.986 7.766L14 8V14.342C15.1697 14.756 16.1823 15.5224 16.8985 16.5357C17.6147 17.5489 17.9992 18.7592 17.9992 20C17.9992 21.2408 17.6147 22.4511 16.8985 23.4643C16.1823 24.4776 15.1697 25.244 14 25.658V40C13.9994 40.5098 13.8042 41.0001 13.4543 41.3707C13.1044 41.7414 12.6261 41.9645 12.1172 41.9943C11.6083 42.0242 11.1072 41.8587 10.7163 41.5315C10.3254 41.2043 10.0742 40.7402 10.014 40.234L10 40V25.66C8.88656 25.2658 7.91411 24.552 7.20439 23.6078C6.49467 22.6637 6.07921 21.5311 6.01 20.352L6 20L6.01 19.648C6.07921 18.4689 6.49467 17.3363 7.20439 16.3922C7.91411 15.448 8.88656 14.7342 10 14.34V8C10 7.46957 10.2107 6.96086 10.5858 6.58579C10.9609 6.21071 11.4696 6 12 6Z" fill="white"/>
<path d="M24 6C24.4899 6.00006 24.9627 6.17991 25.3287 6.50543C25.6948 6.83095 25.9287 7.2795 25.986 7.766L26 8V26.342C27.1697 26.756 28.1823 27.5224 28.8985 28.5357C29.6147 29.5489 29.9992 30.7592 29.9992 32C29.9992 33.2408 29.6147 34.4511 28.8985 35.4644C28.1823 36.4776 27.1697 37.244 26 37.658V40C25.9994 40.5098 25.8042 41.0001 25.4543 41.3707C25.1044 41.7414 24.6261 41.9645 24.1172 41.9943C23.6083 42.0242 23.1072 41.8587 22.7163 41.5315C22.3254 41.2043 22.0742 40.7402 22.014 40.234L22 40V37.66C20.8866 37.2658 19.9141 36.552 19.2044 35.6078C18.4947 34.6637 18.0792 33.5311 18.01 32.352L18 32L18.01 31.648C18.0792 30.4689 18.4947 29.3363 19.2044 28.3922C19.9141 27.448 20.8866 26.7342 22 26.34V8C22 7.46957 22.2107 6.96086 22.5858 6.58579C22.9609 6.21071 23.4696 6 24 6Z" fill="white"/>
<path d="M36 6C36.4899 6.00006 36.9627 6.17991 37.3287 6.50543C37.6948 6.83095 37.9287 7.2795 37.986 7.766L38 8V8.342C39.1697 8.75603 40.1823 9.52241 40.8985 10.5356C41.6147 11.5489 41.9992 12.7592 41.9992 14C41.9992 15.2408 41.6147 16.4511 40.8985 17.4643C40.1823 18.4776 39.1697 19.244 38 19.658V40C37.9994 40.5098 37.8042 41.0001 37.4543 41.3707C37.1044 41.7414 36.6261 41.9645 36.1172 41.9943C35.6083 42.0242 35.1072 41.8587 34.7163 41.5315C34.3254 41.2043 34.0742 40.7402 34.014 40.234L34 40V19.66C32.8866 19.2658 31.9141 18.552 31.2044 17.6078C30.4947 16.6637 30.0792 15.5311 30.01 14.352L30 14L30.01 13.648C30.0792 12.4689 30.4947 11.3363 31.2044 10.3922C31.9141 9.44803 32.8866 8.73418 34 8.34V8C34 7.46957 34.2107 6.96086 34.5858 6.58579C34.9609 6.21071 35.4696 6 36 6Z" fill="white"/>
</g>
<defs>
<filter id="filter0_d_72_95" x="-4" y="0" width="56" height="56" filterUnits="userSpaceOnUse" color-interpolation-filters="sRGB">
<feFlood flood-opacity="0" result="BackgroundImageFix"/>
<feColorMatrix in="SourceAlpha" type="matrix" values="0 0 0 0 0 0 0 0 0 0 0 0 0 0 0 0 0 0 127 0" result="hardAlpha"/>
<feOffset dy="4"/>
<feGaussianBlur stdDeviation="2"/>
<feComposite in2="hardAlpha" operator="out"/>
<feColorMatrix type="matrix" values="0 0 0 0 0 0 0 0 0 0 0 0 0 0 0 0 0 0 0.25 0"/>
<feBlend mode="normal" in2="BackgroundImageFix" result="effect1_dropShadow_72_95"/>
<feBlend mode="normal" in="SourceGraphic" in2="effect1_dropShadow_72_95" result="shape"/>
</filter>
<clipPath id="clip0_72_95">
<rect width="48" height="48" fill="white"/>
</clipPath>
</defs>
</svg>
